# Blender v2.90.1 OBJ File: 'untidsdsdstled.blend'
# www.blender.org
mtllib untidsdsdsdsdstled.mtl
o Cube
v 1.000000 1.000000 -1.000000
v 1.000000 -1.000000 -1.000000
v 1.002990 1.002990 1.002990
v 1.000000 -1.000000 1.000000
v -1.000000 1.000000 -1.000000
v -1.000000 -1.000000 -1.000000
v -1.002990 1.002990 1.002990
v -1.000000 -1.000000 1.000000
v -1.000000 -1.000000 0.000000
v 0.777779 0.770720 0.000485
v -0.775110 0.770674 0.000485
v 1.000000 -1.000000 0.000000
v 0.000000 -1.000000 -1.000000
v 0.000002 0.995588 0.995588
v 0.000000 -1.000000 1.000000
v 0.000000 1.000000 -1.000000
v 0.000000 -1.000000 0.000000
v 0.005246 0.976812 -0.001029
v 1.000000 0.000000 -1.000000
v -1.000000 0.000000 1.000000
v 1.000000 0.000000 1.000000
v -1.000000 0.000000 -1.000000
v 1.000000 0.000000 0.000000
v -1.000000 0.000000 0.000000
v 0.000000 0.000000 -1.000000
v 0.000000 0.000000 1.000000
vt 0.750000 0.625000
vt 0.875000 0.625000
vt 0.875000 0.750000
vt 0.750000 0.750000
vt 0.500000 0.875000
vt 0.625000 0.875000
vt 0.625000 1.000000
vt 0.500000 1.000000
vt 0.500000 0.125000
vt 0.625000 0.125000
vt 0.625000 0.250000
vt 0.500000 0.250000
vt 0.250000 0.625000
vt 0.375000 0.625000
vt 0.375000 0.750000
vt 0.250000 0.750000
vt 0.500000 0.625000
vt 0.625000 0.625000
vt 0.625000 0.750000
vt 0.500000 0.750000
vt 0.500000 0.375000
vt 0.625000 0.375000
vt 0.625000 0.500000
vt 0.500000 0.500000
vt 0.250000 0.500000
vt 0.375000 0.500000
vt 0.500000 0.000000
vt 0.625000 0.000000
vt 0.750000 0.500000
vt 0.875000 0.500000
vt 0.125000 0.500000
vt 0.125000 0.625000
vt 0.125000 0.750000
vt 0.375000 0.875000
vt 0.375000 0.250000
vt 0.375000 0.375000
vt 0.375000 0.000000
vt 0.375000 0.125000
vt 0.375000 1.000000
vn -0.1104 0.9845 -0.1365
vn 0.0037 0.0007 1.0000
vn -0.9843 0.1250 0.1250
vn 0.0000 -1.0000 0.0000
vn 0.9846 0.1219 -0.1249
vn 0.0000 0.0000 -1.0000
vn 0.9846 0.1235 0.1235
vn -0.9843 0.1234 -0.1263
vn -0.1138 0.9840 0.1374
vn 0.1143 0.9840 0.1367
vn -0.0037 0.0007 1.0000
vn 0.1109 0.9845 -0.1358
vn 0.0000 0.0000 1.0000
vn -1.0000 0.0000 0.0000
vn 1.0000 0.0000 0.0000
usemtl Material
s off
f 18/1/1 11/2/1 7/3/1 14/4/1
f 26/5/2 14/6/2 7/7/2 20/8/2
f 24/9/3 11/10/3 5/11/3 22/12/3
f 17/13/4 12/14/4 4/15/4 15/16/4
f 23/17/5 10/18/5 3/19/5 21/20/5
f 25/21/6 16/22/6 1/23/6 19/24/6
f 19/24/7 1/23/7 10/18/7 23/17/7
f 13/25/4 2/26/4 12/14/4 17/13/4
f 20/27/8 7/28/8 11/10/8 24/9/8
f 16/29/9 5/30/9 11/2/9 18/1/9
f 1/23/10 16/29/10 18/1/10 10/18/10
f 6/31/4 13/25/4 17/13/4 9/32/4
f 22/12/6 5/11/6 16/22/6 25/21/6
f 9/32/4 17/13/4 15/16/4 8/33/4
f 21/20/11 3/19/11 14/6/11 26/5/11
f 10/18/12 18/1/12 14/4/12 3/19/12
f 4/15/13 21/20/13 26/5/13 15/34/13
f 6/35/6 22/12/6 25/21/6 13/36/6
f 8/37/14 20/27/14 24/9/14 9/38/14
f 2/26/15 19/24/15 23/17/15 12/14/15
f 13/36/6 25/21/6 19/24/6 2/26/6
f 12/14/15 23/17/15 21/20/15 4/15/15
f 9/38/14 24/9/14 22/12/14 6/35/14
f 15/34/13 26/5/13 20/8/13 8/39/13
